<svg width="20" height="19" viewBox="0 0 20 19" fill="none" xmlns="http://www.w3.org/2000/svg">
<path d="M10.417 0C8.53807 0 6.70135 0.557165 5.13908 1.60104C3.57681 2.64491 2.35917 4.12861 1.64014 5.86451C0.921108 7.60041 0.732977 9.51054 1.09954 11.3534C1.4661 13.1962 2.37088 14.8889 3.69948 16.2175C5.02808 17.5461 6.72082 18.4509 8.56364 18.8175C10.4065 19.184 12.3166 18.9959 14.0525 18.2769C15.7884 17.5578 17.2721 16.3402 18.316 14.7779C19.3598 13.2157 19.917 11.3789 19.917 9.5C19.9143 6.98128 18.9125 4.5665 17.1315 2.78549C15.3505 1.00449 12.9357 0.00272419 10.417 0V0ZM13.5837 10.2917H11.2087V12.6667C11.2087 12.8766 11.1253 13.078 10.9768 13.2265C10.8283 13.3749 10.627 13.4583 10.417 13.4583C10.207 13.4583 10.0057 13.3749 9.8572 13.2265C9.70874 13.078 9.62533 12.8766 9.62533 12.6667V10.2917H7.25033C7.04037 10.2917 6.839 10.2083 6.69054 10.0598C6.54207 9.91133 6.45866 9.70996 6.45866 9.5C6.45866 9.29004 6.54207 9.08867 6.69054 8.94021C6.839 8.79174 7.04037 8.70833 7.25033 8.70833H9.62533V6.33333C9.62533 6.12337 9.70874 5.92201 9.8572 5.77354C10.0057 5.62507 10.207 5.54167 10.417 5.54167C10.627 5.54167 10.8283 5.62507 10.9768 5.77354C11.1253 5.92201 11.2087 6.12337 11.2087 6.33333V8.70833H13.5837C13.7936 8.70833 13.995 8.79174 14.1435 8.94021C14.2919 9.08867 14.3753 9.29004 14.3753 9.5C14.3753 9.70996 14.2919 9.91133 14.1435 10.0598C13.995 10.2083 13.7936 10.2917 13.5837 10.2917Z" fill="#414141"/>
</svg>
