<svg width="19" height="20" viewBox="0 0 19 20" fill="none" xmlns="http://www.w3.org/2000/svg">
<g clip-path="url(#clip0_544_2867)">
<path d="M9.5 0.5C7.62108 0.5 5.78435 1.05717 4.22209 2.10104C2.65982 3.14491 1.44218 4.62861 0.723149 6.36451C0.00411622 8.10041 -0.184015 10.0105 0.182544 11.8534C0.549104 13.6962 1.45389 15.3889 2.78249 16.7175C4.11109 18.0461 5.80383 18.9509 7.64665 19.3175C9.48947 19.684 11.3996 19.4959 13.1355 18.7769C14.8714 18.0578 16.3551 16.8402 17.399 15.2779C18.4428 13.7157 19 11.8789 19 10C18.9973 7.48128 17.9955 5.0665 16.2145 3.28549C14.4335 1.50449 12.0187 0.502724 9.5 0.5V0.5ZM12.6667 10.7917H10.2917V13.1667C10.2917 13.3766 10.2083 13.578 10.0598 13.7265C9.91133 13.8749 9.70997 13.9583 9.5 13.9583C9.29004 13.9583 9.08868 13.8749 8.94021 13.7265C8.79175 13.578 8.70834 13.3766 8.70834 13.1667V10.7917H6.33334C6.12337 10.7917 5.92201 10.7083 5.77354 10.5598C5.62508 10.4113 5.54167 10.21 5.54167 10C5.54167 9.79004 5.62508 9.58867 5.77354 9.44021C5.92201 9.29174 6.12337 9.20833 6.33334 9.20833H8.70834V6.83333C8.70834 6.62337 8.79175 6.42201 8.94021 6.27354C9.08868 6.12507 9.29004 6.04167 9.5 6.04167C9.70997 6.04167 9.91133 6.12507 10.0598 6.27354C10.2083 6.42201 10.2917 6.62337 10.2917 6.83333V9.20833H12.6667C12.8766 9.20833 13.078 9.29174 13.2265 9.44021C13.3749 9.58867 13.4583 9.79004 13.4583 10C13.4583 10.21 13.3749 10.4113 13.2265 10.5598C13.078 10.7083 12.8766 10.7917 12.6667 10.7917Z" fill="white"/>
</g>
<defs>
<clipPath id="clip0_544_2867">
<rect width="19" height="19" fill="white" transform="translate(0 0.5)"/>
</clipPath>
</defs>
</svg>
