<svg width="24" height="24" viewBox="0 0 24 24" fill="none" xmlns="http://www.w3.org/2000/svg">
<mask id="mask0_409_2431" style="mask-type:alpha" maskUnits="userSpaceOnUse" x="0" y="0" width="24" height="24">
<rect width="24" height="24" fill="#D9D9D9"/>
</mask>
<g mask="url(#mask0_409_2431)">
<mask id="mask1_409_2431" style="mask-type:luminance" maskUnits="userSpaceOnUse" x="2" y="2" width="20" height="20">
<path d="M21.5 2H2V21.5H21.5V2Z" fill="white"/>
</mask>
<g mask="url(#mask1_409_2431)">
<path d="M3.62402 9.3125C3.62402 11.4674 4.48005 13.534 6.00378 15.0578C7.52752 16.5815 9.59414 17.4375 11.749 17.4375C13.9039 17.4375 15.9705 16.5815 17.4943 15.0578C19.018 13.534 19.874 11.4674 19.874 9.3125" stroke="#949494" stroke-width="1.2" stroke-linecap="round" stroke-linejoin="round"/>
<path d="M11.749 17.4375C11.749 15.2826 12.6051 13.216 14.1288 11.6922C15.6525 10.1685 17.7191 9.3125 19.874 9.3125" stroke="#949494" stroke-width="1.2" stroke-linecap="round" stroke-linejoin="round"/>
<path d="M3.62402 9.3125C4.69101 9.3125 5.74756 9.52266 6.73332 9.93097C7.7191 10.3393 8.61479 10.9377 9.36927 11.6922C10.1237 12.4467 10.7222 13.3424 11.1305 14.3282C11.5388 15.3139 11.749 16.3705 11.749 17.4375" stroke="#949494" stroke-width="1.2" stroke-linecap="round" stroke-linejoin="round"/>
<path d="M11.749 5.25C12.5679 6.03167 13.2087 6.98056 13.6278 8.0321C14.0471 9.08363 14.2349 10.2132 14.1784 11.3438" stroke="#949494" stroke-width="1.2" stroke-linecap="round" stroke-linejoin="round"/>
<path d="M9.31938 11.3438C9.26292 10.2132 9.45069 9.08363 9.8699 8.0321C10.2891 6.98056 10.9299 6.03167 11.7488 5.25" stroke="#949494" stroke-width="1.2" stroke-linecap="round" stroke-linejoin="round"/>
</g>
</g>
</svg>
