<svg width="20" height="21" viewBox="0 0 20 21" fill="none" xmlns="http://www.w3.org/2000/svg">
<g clip-path="url(#clip0_544_2825)">
<path d="M18.75 9.25H11.25V1.75C11.25 1.05965 10.6904 0.5 10 0.5C9.30965 0.5 8.75 1.05965 8.75 1.75V9.25H1.25C0.559648 9.25 0 9.80965 0 10.5C0 11.1904 0.559648 11.75 1.25 11.75H8.75V19.25C8.75 19.9404 9.30965 20.5 10 20.5C10.6904 20.5 11.25 19.9404 11.25 19.25V11.75H18.75C19.4404 11.75 20 11.1904 20 10.5C20 9.80965 19.4404 9.25 18.75 9.25Z" fill="white"/>
</g>
<defs>
<clipPath id="clip0_544_2825">
<rect width="20" height="20" fill="white" transform="translate(0 0.5)"/>
</clipPath>
</defs>
</svg>
